<?xml version="1.0" encoding="UTF-8"?>
<svg width="24" height="24" viewBox="0 0 24 24" fill="none" xmlns="http://www.w3.org/2000/svg">
<path d="M12 15a3 3 0 1 1 0-6 3 3 0 0 1 0 6zm6.5-3.5l2.4-.8a1 1 0 0 0 0-1.9l-2.4-.8a7.5 7.5 0 0 0-1.4-2.4l.8-2.4a1 1 0 0 0-1.8-.8l-.8 2.4a7.5 7.5 0 0 0-2.4-1.4L11 2.5a1 1 0 0 0-1.9 0l-.8 2.4a7.5 7.5 0 0 0-2.4 1.4l-2.4-.8a1 1 0 0 0-1.8.8l.8 2.4a7.5 7.5 0 0 0-1.4 2.4L1.5 11a1 1 0 0 0 0 1.9l2.4.8a7.5 7.5 0 0 0 1.4 2.4l-.8 2.4a1 1 0 0 0 1.8.8l.8-2.4a7.5 7.5 0 0 0 2.4 1.4l.8 2.4a1 1 0 0 0 1.9 0l.8-2.4a7.5 7.5 0 0 0 2.4-1.4l2.4.8a1 1 0 0 0 1.8-.8l-.8-2.4a7.5 7.5 0 0 0 1.4-2.4z" fill="currentColor" stroke="none"/>
</svg>